<mxfile host="app.diagrams.net" modified="2020-07-24T14:08:23.771Z" agent="5.0 (Windows NT 6.1; Win64; x64) AppleWebKit/537.36 (KHTML, like Gecko) Chrome/71.0.3578.98 Safari/537.36" etag="BTgNMGrTl8H2Y9GR9IQQ" version="13.5.3" type="github">
  <diagram id="inYkrisZdpCWvH0mylS8" name="Page-1">
    <mxGraphModel dx="1422" dy="745" grid="1" gridSize="10" guides="1" tooltips="1" connect="1" arrows="1" fold="1" page="1" pageScale="1" pageWidth="827" pageHeight="1169" math="0" shadow="0">
      <root>
        <mxCell id="0" />
        <mxCell id="1" parent="0" />
        <mxCell id="4Zabpoj7PgC8b4IljEoc-2" value="" style="image;html=1;labelBackgroundColor=#ffffff;image=img/lib/clip_art/people/Worker_Man_128x128.png" parent="1" vertex="1">
          <mxGeometry x="890" y="160" width="80" height="80" as="geometry" />
        </mxCell>
        <mxCell id="4Zabpoj7PgC8b4IljEoc-3" value="" style="image;html=1;labelBackgroundColor=#ffffff;image=img/lib/clip_art/people/Suit_Man_128x128.png" parent="1" vertex="1">
          <mxGeometry x="1090" y="215" width="80" height="80" as="geometry" />
        </mxCell>
        <mxCell id="4Zabpoj7PgC8b4IljEoc-4" value="" style="image;html=1;labelBackgroundColor=#ffffff;image=img/lib/clip_art/people/Suit_Man_Black_128x128.png" parent="1" vertex="1">
          <mxGeometry x="900" y="440" width="80" height="80" as="geometry" />
        </mxCell>
        <mxCell id="4Zabpoj7PgC8b4IljEoc-5" value="" style="image;html=1;labelBackgroundColor=#ffffff;image=img/lib/clip_art/computers/Database_128x128.png" parent="1" vertex="1">
          <mxGeometry x="160" y="100" width="80" height="80" as="geometry" />
        </mxCell>
        <mxCell id="4Zabpoj7PgC8b4IljEoc-6" value="" style="image;html=1;labelBackgroundColor=#ffffff;image=img/lib/clip_art/computers/Database_128x128.png" parent="1" vertex="1">
          <mxGeometry x="140" y="170" width="80" height="80" as="geometry" />
        </mxCell>
        <mxCell id="4Zabpoj7PgC8b4IljEoc-7" value="" style="image;html=1;labelBackgroundColor=#ffffff;image=img/lib/clip_art/computers/Database_128x128.png" parent="1" vertex="1">
          <mxGeometry x="150" y="240" width="80" height="80" as="geometry" />
        </mxCell>
        <mxCell id="4Zabpoj7PgC8b4IljEoc-8" value="" style="image;html=1;labelBackgroundColor=#ffffff;image=img/lib/clip_art/computers/Database_128x128.png" parent="1" vertex="1">
          <mxGeometry x="170" y="300" width="80" height="80" as="geometry" />
        </mxCell>
        <mxCell id="4Zabpoj7PgC8b4IljEoc-9" value="" style="image;html=1;labelBackgroundColor=#ffffff;image=img/lib/clip_art/computers/Database_128x128.png" parent="1" vertex="1">
          <mxGeometry x="225" y="420" width="95" height="100" as="geometry" />
        </mxCell>
        <mxCell id="YMRhmF-9sDAdHVnkn950-1" value="ORAJFP05&lt;br&gt;SGBD: Oracle 11g&lt;br&gt;ETL em:&lt;br&gt;-OWB&lt;br&gt;-PL/SQL" style="text;html=1;resizable=0;autosize=1;align=left;verticalAlign=middle;points=[];fillColor=none;strokeColor=none;rounded=0;textDirection=ltr;" parent="1" vertex="1">
          <mxGeometry x="115" y="440" width="110" height="80" as="geometry" />
        </mxCell>
        <mxCell id="YMRhmF-9sDAdHVnkn950-8" value="" style="image;html=1;labelBackgroundColor=#ffffff;image=img/lib/clip_art/computers/Laptop_128x128.png;align=left;" parent="1" vertex="1">
          <mxGeometry x="750" y="230" width="80" height="80" as="geometry" />
        </mxCell>
        <mxCell id="YMRhmF-9sDAdHVnkn950-10" value="Browser" style="text;html=1;resizable=0;autosize=1;align=center;verticalAlign=middle;points=[];fillColor=none;strokeColor=none;rounded=0;" parent="1" vertex="1">
          <mxGeometry x="760" y="310" width="60" height="20" as="geometry" />
        </mxCell>
        <mxCell id="YMRhmF-9sDAdHVnkn950-11" value="" style="image;html=1;labelBackgroundColor=#ffffff;image=img/lib/clip_art/people/Worker_Man_128x128.png" parent="1" vertex="1">
          <mxGeometry x="960" y="250" width="80" height="80" as="geometry" />
        </mxCell>
        <mxCell id="YMRhmF-9sDAdHVnkn950-12" value="" style="image;html=1;labelBackgroundColor=#ffffff;image=img/lib/clip_art/people/Worker_Woman_128x128.png;align=left;" parent="1" vertex="1">
          <mxGeometry x="940" y="340" width="80" height="80" as="geometry" />
        </mxCell>
        <mxCell id="YMRhmF-9sDAdHVnkn950-58" value="Bancos Transacionais&lt;br&gt;(Oracle)" style="text;html=1;resizable=0;autosize=1;align=center;verticalAlign=middle;points=[];fillColor=none;strokeColor=none;rounded=0;" parent="1" vertex="1">
          <mxGeometry x="5" y="215" width="130" height="30" as="geometry" />
        </mxCell>
        <mxCell id="TMsFoID1ObH95qxMyRnb-1" value="" style="aspect=fixed;perimeter=ellipsePerimeter;html=1;align=center;shadow=0;dashed=0;spacingTop=3;image;image=img/lib/active_directory/windows_server_2.svg;" parent="1" vertex="1">
          <mxGeometry x="470" y="227.5" width="84" height="105" as="geometry" />
        </mxCell>
        <mxCell id="TMsFoID1ObH95qxMyRnb-2" value="" style="endArrow=classic;html=1;" parent="1" edge="1">
          <mxGeometry width="50" height="50" relative="1" as="geometry">
            <mxPoint x="250" y="280" as="sourcePoint" />
            <mxPoint x="440" y="280" as="targetPoint" />
          </mxGeometry>
        </mxCell>
        <mxCell id="TMsFoID1ObH95qxMyRnb-3" value="" style="endArrow=classic;html=1;" parent="1" edge="1">
          <mxGeometry width="50" height="50" relative="1" as="geometry">
            <mxPoint x="550" y="279.5" as="sourcePoint" />
            <mxPoint x="740" y="279.5" as="targetPoint" />
          </mxGeometry>
        </mxCell>
        <mxCell id="TMsFoID1ObH95qxMyRnb-4" value=".Net (MRS Consultas)" style="text;html=1;resizable=0;autosize=1;align=center;verticalAlign=middle;points=[];fillColor=none;strokeColor=none;rounded=0;" parent="1" vertex="1">
          <mxGeometry x="445" y="350" width="130" height="20" as="geometry" />
        </mxCell>
        <mxCell id="TMsFoID1ObH95qxMyRnb-5" value="" style="endArrow=classic;html=1;exitX=1;exitY=0.5;exitDx=0;exitDy=0;entryX=-0.024;entryY=0.176;entryDx=0;entryDy=0;entryPerimeter=0;" parent="1" source="4Zabpoj7PgC8b4IljEoc-5" target="TMsFoID1ObH95qxMyRnb-1" edge="1">
          <mxGeometry width="50" height="50" relative="1" as="geometry">
            <mxPoint x="260" y="290" as="sourcePoint" />
            <mxPoint x="450" y="290" as="targetPoint" />
          </mxGeometry>
        </mxCell>
        <mxCell id="TMsFoID1ObH95qxMyRnb-6" value="" style="endArrow=classic;html=1;exitX=1;exitY=0.5;exitDx=0;exitDy=0;" parent="1" source="4Zabpoj7PgC8b4IljEoc-6" edge="1">
          <mxGeometry width="50" height="50" relative="1" as="geometry">
            <mxPoint x="270" y="300" as="sourcePoint" />
            <mxPoint x="440" y="270" as="targetPoint" />
          </mxGeometry>
        </mxCell>
        <mxCell id="TMsFoID1ObH95qxMyRnb-7" value="" style="endArrow=classic;html=1;" parent="1" source="4Zabpoj7PgC8b4IljEoc-8" edge="1">
          <mxGeometry width="50" height="50" relative="1" as="geometry">
            <mxPoint x="280" y="310" as="sourcePoint" />
            <mxPoint x="450" y="310" as="targetPoint" />
          </mxGeometry>
        </mxCell>
        <mxCell id="TMsFoID1ObH95qxMyRnb-8" value="" style="endArrow=classic;html=1;" parent="1" edge="1">
          <mxGeometry width="50" height="50" relative="1" as="geometry">
            <mxPoint x="330" y="420" as="sourcePoint" />
            <mxPoint x="450" y="330" as="targetPoint" />
          </mxGeometry>
        </mxCell>
        <mxCell id="TMsFoID1ObH95qxMyRnb-10" value="" style="endArrow=classic;html=1;" parent="1" target="4Zabpoj7PgC8b4IljEoc-4" edge="1">
          <mxGeometry width="50" height="50" relative="1" as="geometry">
            <mxPoint x="840" y="320" as="sourcePoint" />
            <mxPoint x="998" y="436" as="targetPoint" />
          </mxGeometry>
        </mxCell>
        <mxCell id="TMsFoID1ObH95qxMyRnb-11" value="" style="endArrow=classic;html=1;" parent="1" target="YMRhmF-9sDAdHVnkn950-12" edge="1">
          <mxGeometry width="50" height="50" relative="1" as="geometry">
            <mxPoint x="840" y="290" as="sourcePoint" />
            <mxPoint x="925" y="450" as="targetPoint" />
          </mxGeometry>
        </mxCell>
        <mxCell id="TMsFoID1ObH95qxMyRnb-12" value="" style="endArrow=classic;html=1;entryX=0.25;entryY=1;entryDx=0;entryDy=0;" parent="1" target="4Zabpoj7PgC8b4IljEoc-2" edge="1">
          <mxGeometry width="50" height="50" relative="1" as="geometry">
            <mxPoint x="840" y="280" as="sourcePoint" />
            <mxPoint x="935" y="460" as="targetPoint" />
          </mxGeometry>
        </mxCell>
        <mxCell id="TMsFoID1ObH95qxMyRnb-13" value="" style="endArrow=classic;html=1;" parent="1" edge="1">
          <mxGeometry width="50" height="50" relative="1" as="geometry">
            <mxPoint x="860" y="290" as="sourcePoint" />
            <mxPoint x="950" y="300" as="targetPoint" />
          </mxGeometry>
        </mxCell>
        <mxCell id="TMsFoID1ObH95qxMyRnb-14" value="" style="endArrow=classic;html=1;exitX=1;exitY=0.5;exitDx=0;exitDy=0;entryX=0;entryY=0.75;entryDx=0;entryDy=0;" parent="1" source="YMRhmF-9sDAdHVnkn950-11" target="4Zabpoj7PgC8b4IljEoc-3" edge="1">
          <mxGeometry width="50" height="50" relative="1" as="geometry">
            <mxPoint x="880" y="360" as="sourcePoint" />
            <mxPoint x="955" y="480" as="targetPoint" />
          </mxGeometry>
        </mxCell>
        <mxCell id="Z5Qk7DdKzJTccViTkkjV-1" value="" style="image;html=1;labelBackgroundColor=#ffffff;image=img/lib/clip_art/computers/Laptop_128x128.png;align=left;" vertex="1" parent="1">
          <mxGeometry x="470" y="440" width="80" height="80" as="geometry" />
        </mxCell>
        <mxCell id="Z5Qk7DdKzJTccViTkkjV-2" value="" style="endArrow=classic;html=1;exitX=0.4;exitY=-0.025;exitDx=0;exitDy=0;exitPerimeter=0;" edge="1" parent="1" source="Z5Qk7DdKzJTccViTkkjV-1">
          <mxGeometry width="50" height="50" relative="1" as="geometry">
            <mxPoint x="490" y="440" as="sourcePoint" />
            <mxPoint x="502" y="380" as="targetPoint" />
          </mxGeometry>
        </mxCell>
        <mxCell id="Z5Qk7DdKzJTccViTkkjV-3" value="Configurador TI" style="text;html=1;resizable=0;autosize=1;align=center;verticalAlign=middle;points=[];fillColor=none;strokeColor=none;rounded=0;" vertex="1" parent="1">
          <mxGeometry x="455" y="520" width="100" height="20" as="geometry" />
        </mxCell>
        <mxCell id="Z5Qk7DdKzJTccViTkkjV-4" value="" style="image;html=1;labelBackgroundColor=#ffffff;image=img/lib/clip_art/people/Worker_Man_128x128.png" vertex="1" parent="1">
          <mxGeometry x="475" y="560" width="80" height="80" as="geometry" />
        </mxCell>
      </root>
    </mxGraphModel>
  </diagram>
</mxfile>
